<mxfile host="65bd71144e">
    <diagram id="Y71lt-kfVr4iXNR0MRe_" name="dataStructure">
        <mxGraphModel dx="1063" dy="579" grid="1" gridSize="10" guides="1" tooltips="1" connect="1" arrows="1" fold="1" page="1" pageScale="1" pageWidth="1654" pageHeight="1169" math="0" shadow="0">
            <root>
                <mxCell id="0"/>
                <mxCell id="1" parent="0"/>
                <mxCell id="21" value="" style="whiteSpace=wrap;html=1;fillColor=none;" parent="1" vertex="1">
                    <mxGeometry x="357" y="470" width="180" height="330" as="geometry"/>
                </mxCell>
                <mxCell id="12" style="edgeStyle=none;html=1;exitX=1;exitY=0.5;exitDx=0;exitDy=0;entryX=0;entryY=0.5;entryDx=0;entryDy=0;" parent="1" source="3" target="11" edge="1">
                    <mxGeometry relative="1" as="geometry"/>
                </mxCell>
                <mxCell id="3" value="Object: {label, value, id}" style="whiteSpace=wrap;html=1;" parent="1" vertex="1">
                    <mxGeometry x="372" y="540" width="150" height="40" as="geometry"/>
                </mxCell>
                <mxCell id="20" style="edgeStyle=none;html=1;exitX=1;exitY=0.5;exitDx=0;exitDy=0;entryX=0;entryY=0.5;entryDx=0;entryDy=0;" parent="1" source="4" target="13" edge="1">
                    <mxGeometry relative="1" as="geometry"/>
                </mxCell>
                <mxCell id="4" value="Object: {label, value, id}" style="whiteSpace=wrap;html=1;" parent="1" vertex="1">
                    <mxGeometry x="372" y="590" width="150" height="40" as="geometry"/>
                </mxCell>
                <mxCell id="19" style="edgeStyle=none;html=1;exitX=1;exitY=0.5;exitDx=0;exitDy=0;entryX=0;entryY=0.5;entryDx=0;entryDy=0;" parent="1" source="5" target="14" edge="1">
                    <mxGeometry relative="1" as="geometry"/>
                </mxCell>
                <mxCell id="5" value="Object: {label, value, id}" style="whiteSpace=wrap;html=1;" parent="1" vertex="1">
                    <mxGeometry x="372" y="640" width="150" height="40" as="geometry"/>
                </mxCell>
                <mxCell id="18" style="edgeStyle=none;html=1;exitX=1;exitY=0.5;exitDx=0;exitDy=0;entryX=0;entryY=0.5;entryDx=0;entryDy=0;" parent="1" source="6" target="15" edge="1">
                    <mxGeometry relative="1" as="geometry"/>
                </mxCell>
                <mxCell id="6" value="Object: {label, value, id}" style="whiteSpace=wrap;html=1;" parent="1" vertex="1">
                    <mxGeometry x="372" y="690" width="150" height="40" as="geometry"/>
                </mxCell>
                <mxCell id="17" style="edgeStyle=none;html=1;exitX=1;exitY=0.5;exitDx=0;exitDy=0;entryX=0;entryY=0.5;entryDx=0;entryDy=0;" parent="1" source="7" target="16" edge="1">
                    <mxGeometry relative="1" as="geometry"/>
                </mxCell>
                <mxCell id="7" value="Object: {label, value, id}" style="whiteSpace=wrap;html=1;" parent="1" vertex="1">
                    <mxGeometry x="372" y="740" width="150" height="40" as="geometry"/>
                </mxCell>
                <mxCell id="11" value="&lt;b&gt;Index&lt;/b&gt;" style="whiteSpace=wrap;html=1;fillColor=none;" parent="1" vertex="1">
                    <mxGeometry x="552" y="540" width="70" height="40" as="geometry"/>
                </mxCell>
                <mxCell id="13" value="&lt;b&gt;Index&lt;/b&gt;" style="whiteSpace=wrap;html=1;fillColor=none;" parent="1" vertex="1">
                    <mxGeometry x="552" y="590" width="70" height="40" as="geometry"/>
                </mxCell>
                <mxCell id="14" value="&lt;b&gt;Index&lt;/b&gt;" style="whiteSpace=wrap;html=1;fillColor=none;" parent="1" vertex="1">
                    <mxGeometry x="552" y="640" width="70" height="40" as="geometry"/>
                </mxCell>
                <mxCell id="15" value="&lt;b&gt;Index&lt;/b&gt;" style="whiteSpace=wrap;html=1;fillColor=none;" parent="1" vertex="1">
                    <mxGeometry x="552" y="690" width="70" height="40" as="geometry"/>
                </mxCell>
                <mxCell id="16" value="&lt;b&gt;Index&lt;/b&gt;" style="whiteSpace=wrap;html=1;fillColor=none;" parent="1" vertex="1">
                    <mxGeometry x="552" y="740" width="70" height="40" as="geometry"/>
                </mxCell>
                <mxCell id="23" value="&lt;b&gt;&lt;font style=&quot;font-size: 20px&quot;&gt;Input Data&lt;/font&gt;&lt;/b&gt;" style="text;html=1;align=center;verticalAlign=middle;resizable=0;points=[];autosize=1;strokeColor=none;fillColor=none;" parent="1" vertex="1">
                    <mxGeometry x="392" y="500" width="110" height="20" as="geometry"/>
                </mxCell>
                <mxCell id="26" value="&lt;font style=&quot;font-size: 20px&quot;&gt;&lt;b&gt;Search&lt;/b&gt;&lt;/font&gt;" style="ellipse;shape=cloud;whiteSpace=wrap;html=1;fillColor=none;" parent="1" vertex="1">
                    <mxGeometry x="220" y="180" width="182" height="145" as="geometry"/>
                </mxCell>
                <mxCell id="28" value="&lt;span style=&quot;font-size: 20px&quot;&gt;&lt;b&gt;Initital Data&lt;/b&gt;&lt;/span&gt;" style="shape=cylinder3;whiteSpace=wrap;html=1;boundedLbl=1;backgroundOutline=1;size=15;fillColor=none;" parent="1" vertex="1">
                    <mxGeometry x="537" y="175" width="128" height="155" as="geometry"/>
                </mxCell>
                <mxCell id="29" value="" style="endArrow=none;dashed=1;html=1;exitX=0.875;exitY=0.5;exitDx=0;exitDy=0;exitPerimeter=0;entryX=0;entryY=0.5;entryDx=0;entryDy=0;entryPerimeter=0;" parent="1" source="26" target="28" edge="1">
                    <mxGeometry width="50" height="50" relative="1" as="geometry">
                        <mxPoint x="712" y="580" as="sourcePoint"/>
                        <mxPoint x="762" y="530" as="targetPoint"/>
                    </mxGeometry>
                </mxCell>
                <mxCell id="31" value="" style="endArrow=classic;html=1;entryX=0.5;entryY=0;entryDx=0;entryDy=0;" parent="1" target="21" edge="1">
                    <mxGeometry width="50" height="50" relative="1" as="geometry">
                        <mxPoint x="447" y="260" as="sourcePoint"/>
                        <mxPoint x="762" y="500" as="targetPoint"/>
                    </mxGeometry>
                </mxCell>
                <mxCell id="32" value="" style="whiteSpace=wrap;html=1;fillColor=none;" parent="1" vertex="1">
                    <mxGeometry x="744" y="399" width="370" height="520" as="geometry"/>
                </mxCell>
                <mxCell id="43" value="&lt;b&gt;Index&lt;/b&gt;" style="whiteSpace=wrap;html=1;fillColor=none;" parent="1" vertex="1">
                    <mxGeometry x="760" y="540" width="70" height="40" as="geometry"/>
                </mxCell>
                <mxCell id="44" value="&lt;b&gt;Index&lt;/b&gt;" style="whiteSpace=wrap;html=1;fillColor=none;" parent="1" vertex="1">
                    <mxGeometry x="760" y="590" width="70" height="40" as="geometry"/>
                </mxCell>
                <mxCell id="45" value="&lt;b&gt;Index&lt;/b&gt;" style="whiteSpace=wrap;html=1;fillColor=none;" parent="1" vertex="1">
                    <mxGeometry x="760" y="640" width="70" height="40" as="geometry"/>
                </mxCell>
                <mxCell id="46" value="&lt;b&gt;Index&lt;/b&gt;" style="whiteSpace=wrap;html=1;fillColor=none;" parent="1" vertex="1">
                    <mxGeometry x="760" y="690" width="70" height="40" as="geometry"/>
                </mxCell>
                <mxCell id="47" value="&lt;b&gt;Index&lt;/b&gt;" style="whiteSpace=wrap;html=1;fillColor=none;" parent="1" vertex="1">
                    <mxGeometry x="760" y="740" width="70" height="40" as="geometry"/>
                </mxCell>
                <mxCell id="198" style="edgeStyle=none;html=1;exitX=0;exitY=0.5;exitDx=0;exitDy=0;entryX=1;entryY=0.5;entryDx=0;entryDy=0;fontSize=20;" parent="1" source="181" target="47" edge="1">
                    <mxGeometry relative="1" as="geometry"/>
                </mxCell>
                <mxCell id="199" style="edgeStyle=none;html=1;exitX=1;exitY=0.5;exitDx=0;exitDy=0;entryX=0;entryY=0.5;entryDx=0;entryDy=0;fontSize=20;" parent="1" source="181" target="173" edge="1">
                    <mxGeometry relative="1" as="geometry"/>
                </mxCell>
                <mxCell id="200" style="edgeStyle=none;html=1;exitX=1;exitY=0.5;exitDx=0;exitDy=0;entryX=0;entryY=0.5;entryDx=0;entryDy=0;fontSize=20;" parent="1" source="181" target="169" edge="1">
                    <mxGeometry relative="1" as="geometry"/>
                </mxCell>
                <mxCell id="201" style="edgeStyle=none;html=1;exitX=1;exitY=0.5;exitDx=0;exitDy=0;entryX=0;entryY=0.5;entryDx=0;entryDy=0;fontSize=20;" parent="1" source="181" target="166" edge="1">
                    <mxGeometry relative="1" as="geometry"/>
                </mxCell>
                <mxCell id="202" style="edgeStyle=none;html=1;exitX=1;exitY=0.5;exitDx=0;exitDy=0;entryX=0;entryY=0.5;entryDx=0;entryDy=0;fontSize=20;" parent="1" source="181" target="171" edge="1">
                    <mxGeometry relative="1" as="geometry"/>
                </mxCell>
                <mxCell id="203" style="edgeStyle=none;html=1;exitX=1;exitY=0.5;exitDx=0;exitDy=0;entryX=0;entryY=0.5;entryDx=0;entryDy=0;fontSize=20;" parent="1" source="181" target="194" edge="1">
                    <mxGeometry relative="1" as="geometry"/>
                </mxCell>
                <mxCell id="3wnLzBjWQWs-J0ZzIrMt-206" style="edgeStyle=none;html=1;exitX=1;exitY=0.5;exitDx=0;exitDy=0;entryX=0;entryY=0.5;entryDx=0;entryDy=0;fontSize=20;" parent="1" source="181" target="3wnLzBjWQWs-J0ZzIrMt-205" edge="1">
                    <mxGeometry relative="1" as="geometry"/>
                </mxCell>
                <mxCell id="181" value="Object: {Index, child, parent, data, selected,&lt;br&gt;disable}" style="whiteSpace=wrap;html=1;" parent="1" vertex="1">
                    <mxGeometry x="850" y="785" width="243" height="50" as="geometry"/>
                </mxCell>
                <mxCell id="188" value="Object: {Index, child, parent, data, selected,&lt;br&gt;disable}" style="whiteSpace=wrap;html=1;" parent="1" vertex="1">
                    <mxGeometry x="850" y="635" width="243" height="50" as="geometry"/>
                </mxCell>
                <mxCell id="189" value="Object: {Index, child, parent, data, selected,&lt;br&gt;disable}" style="whiteSpace=wrap;html=1;" parent="1" vertex="1">
                    <mxGeometry x="850" y="565" width="243" height="50" as="geometry"/>
                </mxCell>
                <mxCell id="191" value="" style="shape=flexArrow;endArrow=classic;html=1;fontSize=20;" parent="1" edge="1">
                    <mxGeometry width="50" height="50" relative="1" as="geometry">
                        <mxPoint x="650" y="640" as="sourcePoint"/>
                        <mxPoint x="730" y="640" as="targetPoint"/>
                    </mxGeometry>
                </mxCell>
                <mxCell id="166" value="Data: {label, value, id}" style="whiteSpace=wrap;html=1;" parent="1" vertex="1">
                    <mxGeometry x="1170" y="834" width="140" height="40" as="geometry"/>
                </mxCell>
                <mxCell id="168" value="Object: {Index, child, parent, data, selected,&lt;br&gt;disable}" style="whiteSpace=wrap;html=1;" parent="1" vertex="1">
                    <mxGeometry x="850" y="714" width="243" height="50" as="geometry"/>
                </mxCell>
                <mxCell id="169" value="Parent: IndexN" style="whiteSpace=wrap;html=1;" parent="1" vertex="1">
                    <mxGeometry x="1170" y="774" width="140" height="40" as="geometry"/>
                </mxCell>
                <mxCell id="171" value="Child: [Index1, Index2, Index3...]" style="whiteSpace=wrap;html=1;" parent="1" vertex="1">
                    <mxGeometry x="1170" y="894" width="140" height="40" as="geometry"/>
                </mxCell>
                <mxCell id="173" value="index: &lt;b&gt;Index&lt;/b&gt;" style="whiteSpace=wrap;html=1;" parent="1" vertex="1">
                    <mxGeometry x="1170" y="714" width="140" height="40" as="geometry"/>
                </mxCell>
                <mxCell id="156" value="Data: {label, value, id}" style="whiteSpace=wrap;html=1;" parent="1" vertex="1">
                    <mxGeometry x="1180" y="401" width="140" height="40" as="geometry"/>
                </mxCell>
                <mxCell id="157" style="edgeStyle=none;html=1;exitX=1;exitY=0.5;exitDx=0;exitDy=0;entryX=0;entryY=0.5;entryDx=0;entryDy=0;fontSize=20;" parent="1" source="158" target="156" edge="1">
                    <mxGeometry relative="1" as="geometry"/>
                </mxCell>
                <mxCell id="195" style="edgeStyle=none;html=1;exitX=1;exitY=0.5;exitDx=0;exitDy=0;entryX=0;entryY=0.5;entryDx=0;entryDy=0;fontSize=20;" parent="1" source="158" target="193" edge="1">
                    <mxGeometry relative="1" as="geometry"/>
                </mxCell>
                <mxCell id="197" style="edgeStyle=none;html=1;exitX=0;exitY=0.5;exitDx=0;exitDy=0;entryX=1;entryY=0.5;entryDx=0;entryDy=0;fontSize=20;" parent="1" source="158" target="43" edge="1">
                    <mxGeometry relative="1" as="geometry"/>
                </mxCell>
                <mxCell id="3wnLzBjWQWs-J0ZzIrMt-204" style="edgeStyle=none;html=1;exitX=1;exitY=0.5;exitDx=0;exitDy=0;entryX=0;entryY=0.5;entryDx=0;entryDy=0;fontSize=20;" parent="1" source="158" target="3wnLzBjWQWs-J0ZzIrMt-203" edge="1">
                    <mxGeometry relative="1" as="geometry"/>
                </mxCell>
                <mxCell id="158" value="Object: {Index, child, parent, data, selected, disable}" style="whiteSpace=wrap;html=1;" parent="1" vertex="1">
                    <mxGeometry x="850" y="484" width="243" height="50" as="geometry"/>
                </mxCell>
                <mxCell id="159" value="Parent: IndexN" style="whiteSpace=wrap;html=1;" parent="1" vertex="1">
                    <mxGeometry x="1180" y="341" width="140" height="40" as="geometry"/>
                </mxCell>
                <mxCell id="160" style="edgeStyle=none;html=1;exitX=1;exitY=0.5;exitDx=0;exitDy=0;entryX=0;entryY=0.5;entryDx=0;entryDy=0;" parent="1" source="158" target="159" edge="1">
                    <mxGeometry relative="1" as="geometry"/>
                </mxCell>
                <mxCell id="161" value="Child: [Index1, Index2, Index3...]" style="whiteSpace=wrap;html=1;" parent="1" vertex="1">
                    <mxGeometry x="1180" y="461" width="140" height="40" as="geometry"/>
                </mxCell>
                <mxCell id="162" style="edgeStyle=none;html=1;exitX=1;exitY=0.5;exitDx=0;exitDy=0;entryX=0;entryY=0.5;entryDx=0;entryDy=0;" parent="1" source="158" target="161" edge="1">
                    <mxGeometry relative="1" as="geometry"/>
                </mxCell>
                <mxCell id="163" value="index: &lt;b&gt;Index&lt;/b&gt;" style="whiteSpace=wrap;html=1;" parent="1" vertex="1">
                    <mxGeometry x="1180" y="281" width="140" height="40" as="geometry"/>
                </mxCell>
                <mxCell id="164" style="edgeStyle=none;html=1;exitX=1;exitY=0.5;exitDx=0;exitDy=0;entryX=0;entryY=0.5;entryDx=0;entryDy=0;fontSize=20;" parent="1" source="158" target="163" edge="1">
                    <mxGeometry relative="1" as="geometry"/>
                </mxCell>
                <mxCell id="48" value="&lt;b&gt;&lt;font style=&quot;font-size: 20px&quot;&gt;Transfrom Data&lt;/font&gt;&lt;/b&gt;" style="text;html=1;align=center;verticalAlign=middle;resizable=0;points=[];autosize=1;strokeColor=none;fillColor=none;" parent="1" vertex="1">
                    <mxGeometry x="895.5" y="445" width="160" height="20" as="geometry"/>
                </mxCell>
                <mxCell id="192" value="Store" style="text;html=1;align=center;verticalAlign=middle;resizable=0;points=[];autosize=1;strokeColor=none;fillColor=none;fontSize=20;" parent="1" vertex="1">
                    <mxGeometry x="571" y="220" width="60" height="30" as="geometry"/>
                </mxCell>
                <mxCell id="193" value="selected: true/false" style="whiteSpace=wrap;html=1;" parent="1" vertex="1">
                    <mxGeometry x="1180" y="521" width="140" height="40" as="geometry"/>
                </mxCell>
                <mxCell id="194" value="selected: true/false" style="whiteSpace=wrap;html=1;" parent="1" vertex="1">
                    <mxGeometry x="1170" y="954" width="140" height="40" as="geometry"/>
                </mxCell>
                <mxCell id="3wnLzBjWQWs-J0ZzIrMt-203" value="&lt;span style=&quot;color: rgba(0 , 0 , 0 , 0) ; font-family: monospace ; font-size: 0px&quot;&gt;%3CmxGraphModel%3E%3Croot%3E%3CmxCell%20id%3D%220%22%2F%3E%3CmxCell%20id%3D%221%22%20parent%3D%220%22%2F%3E%3CmxCell%20id%3D%222%22%20value%3D%22selected%3A%20true%2Ffalse%22%20style%3D%22whiteSpace%3Dwrap%3Bhtml%3D1%3B%22%20vertex%3D%221%22%20parent%3D%221%22%3E%3CmxGeometry%20x%3D%221146%22%20y%3D%22620%22%20width%3D%22140%22%20height%3D%2240%22%20as%3D%22geometry%22%2F%3E%3C%2FmxCell%3E%3C%2Froot%3E%3C%2FmxGraphModel%3E&lt;/span&gt;disable:&amp;nbsp;true/false" style="whiteSpace=wrap;html=1;" parent="1" vertex="1">
                    <mxGeometry x="1180" y="575" width="140" height="40" as="geometry"/>
                </mxCell>
                <mxCell id="3wnLzBjWQWs-J0ZzIrMt-205" value="&lt;span style=&quot;color: rgba(0 , 0 , 0 , 0) ; font-family: monospace ; font-size: 0px&quot;&gt;%3CmxGraphModel%3E%3Croot%3E%3CmxCell%20id%3D%220%22%2F%3E%3CmxCell%20id%3D%221%22%20parent%3D%220%22%2F%3E%3CmxCell%20id%3D%222%22%20value%3D%22selected%3A%20true%2Ffalse%22%20style%3D%22whiteSpace%3Dwrap%3Bhtml%3D1%3B%22%20vertex%3D%221%22%20parent%3D%221%22%3E%3CmxGeometry%20x%3D%221146%22%20y%3D%22620%22%20width%3D%22140%22%20height%3D%2240%22%20as%3D%22geometry%22%2F%3E%3C%2FmxCell%3E%3C%2Froot%3E%3C%2FmxGraphModel%3E&lt;/span&gt;disable:&amp;nbsp;true/false" style="whiteSpace=wrap;html=1;" parent="1" vertex="1">
                    <mxGeometry x="1170" y="1014" width="140" height="40" as="geometry"/>
                </mxCell>
            </root>
        </mxGraphModel>
    </diagram>
    <diagram id="OUPV-rexNQ3JyeoW8-Fu" name="Component tree">
        <mxGraphModel dx="1251" dy="681" grid="1" gridSize="10" guides="1" tooltips="1" connect="1" arrows="1" fold="1" page="1" pageScale="1" pageWidth="1654" pageHeight="1169" math="0" shadow="0">
            <root>
                <mxCell id="urdq94lAhIrP1rXwRjC7-0"/>
                <mxCell id="urdq94lAhIrP1rXwRjC7-1" parent="urdq94lAhIrP1rXwRjC7-0"/>
                <mxCell id="urdq94lAhIrP1rXwRjC7-11" style="edgeStyle=none;html=1;exitX=0.5;exitY=1;exitDx=0;exitDy=0;entryX=0.5;entryY=0;entryDx=0;entryDy=0;fontSize=20;" parent="urdq94lAhIrP1rXwRjC7-1" source="urdq94lAhIrP1rXwRjC7-2" target="urdq94lAhIrP1rXwRjC7-3" edge="1">
                    <mxGeometry relative="1" as="geometry"/>
                </mxCell>
                <mxCell id="urdq94lAhIrP1rXwRjC7-12" style="edgeStyle=none;html=1;exitX=0.5;exitY=1;exitDx=0;exitDy=0;entryX=0.5;entryY=0;entryDx=0;entryDy=0;fontSize=20;" parent="urdq94lAhIrP1rXwRjC7-1" source="urdq94lAhIrP1rXwRjC7-2" target="urdq94lAhIrP1rXwRjC7-5" edge="1">
                    <mxGeometry relative="1" as="geometry"/>
                </mxCell>
                <mxCell id="urdq94lAhIrP1rXwRjC7-2" value="UISelect" style="whiteSpace=wrap;html=1;fontSize=20;fillColor=none;" parent="urdq94lAhIrP1rXwRjC7-1" vertex="1">
                    <mxGeometry x="595" y="260" width="210" height="70" as="geometry"/>
                </mxCell>
                <mxCell id="urdq94lAhIrP1rXwRjC7-3" value="OptionSelectedList" style="whiteSpace=wrap;html=1;fontSize=20;fillColor=none;" parent="urdq94lAhIrP1rXwRjC7-1" vertex="1">
                    <mxGeometry x="370" y="400" width="220" height="70" as="geometry"/>
                </mxCell>
                <mxCell id="urdq94lAhIrP1rXwRjC7-4" value="SearchBar" style="whiteSpace=wrap;html=1;fontSize=20;fillColor=none;" parent="urdq94lAhIrP1rXwRjC7-1" vertex="1">
                    <mxGeometry x="595" y="530" width="150" height="70" as="geometry"/>
                </mxCell>
                <mxCell id="urdq94lAhIrP1rXwRjC7-13" style="edgeStyle=none;html=1;exitX=0.5;exitY=1;exitDx=0;exitDy=0;entryX=0.5;entryY=0;entryDx=0;entryDy=0;fontSize=20;" parent="urdq94lAhIrP1rXwRjC7-1" source="urdq94lAhIrP1rXwRjC7-5" target="urdq94lAhIrP1rXwRjC7-6" edge="1">
                    <mxGeometry relative="1" as="geometry"/>
                </mxCell>
                <mxCell id="urdq94lAhIrP1rXwRjC7-14" style="edgeStyle=none;html=1;exitX=0.5;exitY=1;exitDx=0;exitDy=0;entryX=0.5;entryY=0;entryDx=0;entryDy=0;fontSize=20;" parent="urdq94lAhIrP1rXwRjC7-1" source="urdq94lAhIrP1rXwRjC7-5" target="urdq94lAhIrP1rXwRjC7-10" edge="1">
                    <mxGeometry relative="1" as="geometry"/>
                </mxCell>
                <mxCell id="urdq94lAhIrP1rXwRjC7-15" style="edgeStyle=none;html=1;exitX=0.5;exitY=1;exitDx=0;exitDy=0;entryX=0.5;entryY=0;entryDx=0;entryDy=0;fontSize=20;" parent="urdq94lAhIrP1rXwRjC7-1" source="urdq94lAhIrP1rXwRjC7-5" target="urdq94lAhIrP1rXwRjC7-4" edge="1">
                    <mxGeometry relative="1" as="geometry"/>
                </mxCell>
                <mxCell id="urdq94lAhIrP1rXwRjC7-5" value="Dropdown" style="whiteSpace=wrap;html=1;fontSize=20;fillColor=none;" parent="urdq94lAhIrP1rXwRjC7-1" vertex="1">
                    <mxGeometry x="835" y="400" width="180" height="70" as="geometry"/>
                </mxCell>
                <mxCell id="urdq94lAhIrP1rXwRjC7-19" style="edgeStyle=none;html=1;exitX=0.5;exitY=1;exitDx=0;exitDy=0;entryX=0.5;entryY=0;entryDx=0;entryDy=0;fontSize=20;" parent="urdq94lAhIrP1rXwRjC7-1" source="urdq94lAhIrP1rXwRjC7-6" target="urdq94lAhIrP1rXwRjC7-7" edge="1">
                    <mxGeometry relative="1" as="geometry"/>
                </mxCell>
                <mxCell id="urdq94lAhIrP1rXwRjC7-20" style="edgeStyle=none;html=1;exitX=0.5;exitY=1;exitDx=0;exitDy=0;entryX=0.5;entryY=0;entryDx=0;entryDy=0;fontSize=20;" parent="urdq94lAhIrP1rXwRjC7-1" source="urdq94lAhIrP1rXwRjC7-6" target="urdq94lAhIrP1rXwRjC7-9" edge="1">
                    <mxGeometry relative="1" as="geometry"/>
                </mxCell>
                <mxCell id="urdq94lAhIrP1rXwRjC7-6" value="SelectContainer" style="whiteSpace=wrap;html=1;fontSize=20;fillColor=none;" parent="urdq94lAhIrP1rXwRjC7-1" vertex="1">
                    <mxGeometry x="835" y="530" width="180" height="70" as="geometry"/>
                </mxCell>
                <mxCell id="urdq94lAhIrP1rXwRjC7-21" style="edgeStyle=none;html=1;exitX=1;exitY=0.25;exitDx=0;exitDy=0;entryX=0;entryY=0.25;entryDx=0;entryDy=0;fontSize=20;" parent="urdq94lAhIrP1rXwRjC7-1" source="urdq94lAhIrP1rXwRjC7-7" target="urdq94lAhIrP1rXwRjC7-9" edge="1">
                    <mxGeometry relative="1" as="geometry"/>
                </mxCell>
                <mxCell id="urdq94lAhIrP1rXwRjC7-7" value="OptionsTwin1" style="whiteSpace=wrap;html=1;fontSize=20;fillColor=none;" parent="urdq94lAhIrP1rXwRjC7-1" vertex="1">
                    <mxGeometry x="675" y="685" width="160" height="60" as="geometry"/>
                </mxCell>
                <mxCell id="urdq94lAhIrP1rXwRjC7-22" style="edgeStyle=none;html=1;exitX=0;exitY=0.75;exitDx=0;exitDy=0;entryX=1;entryY=0.75;entryDx=0;entryDy=0;fontSize=20;" parent="urdq94lAhIrP1rXwRjC7-1" source="urdq94lAhIrP1rXwRjC7-9" target="urdq94lAhIrP1rXwRjC7-7" edge="1">
                    <mxGeometry relative="1" as="geometry"/>
                </mxCell>
                <mxCell id="urdq94lAhIrP1rXwRjC7-9" value="OptionsTwin2" style="whiteSpace=wrap;html=1;fontSize=20;fillColor=none;" parent="urdq94lAhIrP1rXwRjC7-1" vertex="1">
                    <mxGeometry x="1015" y="685" width="160" height="60" as="geometry"/>
                </mxCell>
                <mxCell id="urdq94lAhIrP1rXwRjC7-10" value="ButtonDone" style="whiteSpace=wrap;html=1;fontSize=20;fillColor=none;" parent="urdq94lAhIrP1rXwRjC7-1" vertex="1">
                    <mxGeometry x="1105" y="530" width="140" height="70" as="geometry"/>
                </mxCell>
            </root>
        </mxGraphModel>
    </diagram>
</mxfile>